<svg xmlns="http://www.w3.org/2000/svg" viewBox="-32 -32 640 576">
  <!-- Font Awesome Pro 5.15.4 by @fontawesome - https://fontawesome.com License - https://fontawesome.com/license (Commercial License) -->
  <path fill="none" stroke="currentColor" stroke-width="30" stroke-linecap="round" stroke-linejoin="round" d="M640 130.94V96c0-17.67-14.33-32-32-32H32C14.33 64 0 78.33 0 96v34.94c18.6 6.61 32 24.19 32 45.06s-13.4 38.45-32 45.06V320h640v-98.94c-18.6-6.61-32-24.19-32-45.06s13.4-38.45 32-45.06zM224 256h-64V128h64v128zm128 0h-64V128h64v128zm128 0h-64V128h64v128zM0 448h64c0 17.67 14.33 32 32 32h32c17.67 0 32-14.33 32-32h384c0 17.67 14.33 32 32 32h32c17.67 0 32-14.33 32-32h64v-64H0v64z"/>
</svg> 